<svg xmlns="http://www.w3.org/2000/svg" xmlns:xlink="http://www.w3.org/1999/xlink" viewBox="0 0 489.55 576.86"><defs><style>.cls-1{fill:none;}.cls-2{clip-path:url(#clip-path);}.cls-3{fill:#0b2e4d;}.cls-4{fill:#ffb8b8;}.cls-5{fill:#d0cde1;}.cls-6{fill:#3f3d56;}.cls-7{fill:#a0616a;}.cls-8{opacity:0.07;}.cls-9{fill:#2f2e41;}.cls-10{fill:#d5b37c;}</style><clipPath id="clip-path" transform="translate(0 0)"><path class="cls-1" d="M245.14,0h244.4a0,0,0,0,1,0,0V244.4A245.14,245.14,0,0,1,244.4,489.55h0A244.4,244.4,0,0,1,0,245.14v0A245.14,245.14,0,0,1,245.14,0Z"/></clipPath></defs><g id="Layer_2" data-name="Layer 2"><g id="b5ecd551-b8d9-47b1-bd91-255ff33e7450"><g class="cls-2"><path class="cls-3" d="M245.14,0h244.4a0,0,0,0,1,0,0V244.4A245.14,245.14,0,0,1,244.4,489.55h0A244.4,244.4,0,0,1,0,245.14v0A245.14,245.14,0,0,1,245.14,0Z"/><path class="cls-4" d="M338.07,445.55l21.21,75.69s-4.37,67,16,53.92c20.88-13.42,13.12-69.95,13.12-69.95l-12.23-67.9Z" transform="translate(0 0)"/><path class="cls-5" d="M349.4,233.23l17.52,17.53v83.48s10.31,15.46,8.25,19.58-4.12,4.13-2.06,7.22,4.12,5.15,2.06,7.21-2.06,7.22,0,9.28,6.18,5.15,3.09,8.24-7.21,1-3.09,12.37,11.34,14.43,9.28,18.55-2.07,14.43-2.07,14.43l-44.31,6.19-9.28-116.47Z" transform="translate(0 0)"/><polygon class="cls-6" points="384.45 430.09 332.91 432.15 334.97 453.8 380.32 445.55 384.45 430.09"/><polygon class="cls-7" points="242.73 125.53 236.54 187.37 299.42 196.65 304.05 161.09 308.69 125.53 242.73 125.53"/><polygon class="cls-4" points="242.73 125.19 236.54 187.03 299.42 196.31 304.05 160.75 308.69 125.19 242.73 125.19"/><polygon class="cls-8" points="242.73 125.19 236.54 187.03 299.42 196.31 304.05 160.75 308.69 125.19 242.73 125.19"/><path class="cls-4" d="M106.16,419.79,141.21,495s6.18,35,15.46,36.07S175.22,495,175.22,495l-12.37-19.59-14.43-55.65Z" transform="translate(0 0)"/><path class="cls-9" d="M346,573.3H147.93c1.57-24.83,2.55-40.14,2.55-40.14l2.63-4.14,12.76-20L175,494.66l3.18-5,1.18-1.85,12.48-2.28,128.72-23.48a157.33,157.33,0,0,0,9,27.82q1.32,3,2.83,6c3.24,6.31,7.19,12.3,11.88,16.71,1.07,1,1.84,3.67,2.35,7.79C347.83,530.41,347.48,549.15,346,573.3Z" transform="translate(0 0)"/><circle class="cls-4" cx="277.26" cy="96.15" r="49.47"/><path class="cls-5" d="M167,197.16,159.76,193s-31.95,21.64-42.26,70.08S100,323.93,100,323.93s-10.31,2.07-3.09,9.28,7.21,6.18,1,10.31-10.31-4.13-6.19,4.12S101,353.82,96.89,359s-11.34,5.15-7.22,9.27-4.12,13.4,1,17.52,7.22,5.16,7.22,12.37A36.42,36.42,0,0,0,100,410.51h53.59s-10.3-19.58-7.21-23.71,4.12-8.24,2.06-10.3-8.24,2.06-2.06-3.09,8.24-2.07,6.18-8.25-6.18-3.09-2.06-6.18,7.22-2.06,5.16-5.16-6.19-3.09-2.07-5.15,7.22,0,6.19-5.15-2.06-3.1,0-5.16,23.7-72.14,23.7-74.21S167,197.16,167,197.16Z" transform="translate(0 0)"/><polygon class="cls-6" points="156.67 406.39 91.73 410.51 108.22 425.97 153.57 427 156.67 406.39"/><path class="cls-6" d="M175.22,483.69l-13.4,24.73s40.2,5.16,54.63,10.31S268,531.1,268,531.1L277.26,495Z" transform="translate(0 0)"/><polygon class="cls-6" points="292.71 495.03 304.05 529.04 349.4 519.76 344.25 487.81 292.71 495.03"/><path class="cls-5" d="M311.27,162.12s-3.09-2.06-10.31,2.06S270,170.36,258.7,158,239.12,135.32,236,137.38s-5.16,25.77-5.16,25.77l-10.3,8.24L159.76,193l5.15,139.14,9.28,31.95s-7.22,24.74,2.06,39.17-5.15,19.58-5.15,19.58-3.1,4.12-1,14.43S168,485.75,168,485.75s87.61,39.17,179.34,5.15L337,451.74l-5.15-87.61S337,349.7,336,343.52s30.92-92.76,30.92-92.76-5.15-43.29-31.95-52.57-30.92-18.55-30.92-18.55S316.42,166.24,311.27,162.12Z" transform="translate(0 0)"/><path class="cls-10" d="M227.44,102.49s-5.14-7.7-3.16-16a48.39,48.39,0,0,0,1.38-14.43s4.15-13.43,8.3-20.94,2.17-10.67,15.22-13,7.7-19.37,42.08-1A10.09,10.09,0,0,0,301.74,41c7.11-1.38,9.68,8.5,9.68,8.5s4.74-2.77,6.52,1.18S332.4,48.35,332.4,75,318,125.53,318,125.53,319,80.66,295.51,76.11s-48.8-17.78-54.93-.79S227.44,102.49,227.44,102.49Z" transform="translate(0 0)"/><ellipse class="cls-4" cx="318.48" cy="106.98" rx="4.64" ry="6.18"/></g></g></g></svg>