<svg id="b5ecd551-b8d9-47b1-bd91-255ff33e7450" xmlns="http://www.w3.org/2000/svg" xmlns:xlink="http://www.w3.org/1999/xlink" viewBox="0 0 127 150"><defs><style>.cls-1{fill:none;}.cls-2{clip-path:url(#clip-path);}.cls-3{fill:#4e85ac;}.cls-4{fill:#2f2e41;}.cls-5{fill:#ffb8b8;}.cls-6{fill:#3f3d56;}.cls-7{fill:#fed433;}.cls-8{opacity:0.2;isolation:isolate;}</style><clipPath id="clip-path"><path class="cls-1" d="M63.6,0H127a0,0,0,0,1,0,0V63.4A63.6,63.6,0,0,1,63.4,127h0A63.4,63.4,0,0,1,0,63.6v0A63.6,63.6,0,0,1,63.6,0Z"/></clipPath></defs><g class="cls-2"><path class="cls-3" d="M63.6,0H127a0,0,0,0,1,0,0V63.4A63.6,63.6,0,0,1,63.4,127h0A63.4,63.4,0,0,1,0,63.6v0A63.6,63.6,0,0,1,63.6,0Z"/><path class="cls-4" d="M85.51,27.09c-5.91-10-17.62-10.46-17.62-10.46s-11.4-1.46-18.72,13.76C42.35,44.58,32.94,58.28,47.66,61.6l2.66-8.27L52,62.22a57.59,57.59,0,0,0,6.3.1c15.76-.5,30.76.15,30.28-5.5C87.9,49.3,91.2,36.7,85.51,27.09Z"/><path class="cls-5" d="M61.23,48a56.08,56.08,0,0,1,4.09,15.85l16.37-1c-3.77-5.33-5-11.45-3.58-18.41Z"/><polygon class="cls-4" points="88.85 120.62 88.71 126.82 88.43 140.21 88.43 140.21 88.35 144.09 34.19 144.09 36.39 131.87 36.39 131.86 38.36 120.92 39.24 116.02 39.24 116.02 83.73 109.88 88.85 120.62"/><path class="cls-6" d="M88.85,120.62l-.14,6.2c-15.74-.4-40.14-4.2-50.35-5.9l.88-4.9,44.49-6.14Z"/><circle class="cls-5" cx="69.16" cy="39.57" r="12.78"/><path class="cls-7" d="M93.7,127.53s1.54,13.8-7.67,12.78L84.5,126.5l-8.18-8.18-23-.51L36.43,133.66s-.51-16.36,1.53-17.9,6.65-5.11,6.65-5.11v-2.56L30.8,80S39,63.09,45.63,62.58l8.7-.51s3.07-1.53,3.07-2-.52-4.6,2-3.58c0,0,.23-5.24,2.93-3.64,0,0,8.48,6.65,17.09.29,0,0,4-.74,3.51,1.31S83,58,84,58s5.62,1.53,5.62,2.56c0,.21.34,2.33.86,5.52h0c1.89,11.62,6.3,37.43,6.3,37.43S101.38,110.14,93.7,127.53Z"/><path class="cls-7" d="M34.38,77.41,30.8,80-1.93,121.9l-17.38,13.81s9.71-1.54,7.67,6.65l59.83-34.27Z"/><path class="cls-6" d="M90.47,66.06h0c-.68,4-22.85,3.17-25.91,3.17a14.28,14.28,0,0,1-8.7-2.56c-3.07-2-1.53-4.6-1.53-4.6s2.61-2,2.61-2.5S56.43,55,59,56c0,0,.23-5.25,2.92-3.65,0,0,8.94,7.11,17.55.75,0,0,4-.74,3.51,1.31S83,58,84,58s5.62,1.53,5.62,2.56C89.61,60.75,90,62.87,90.47,66.06Z"/><path class="cls-5" d="M87.82,47s-4.09-8.69-8.18-4.6,4.6,10.23,4.6,10.23Z"/><path class="cls-7" d="M87.82,44.94s-6.31,8-8.27,8.59c0,0,5.72,22.6,12.88,28.74l4.09,21s17.38-7.16,13.29-18.93l-.12-.35a116.3,116.3,0,0,0-14-27.63Z"/><polygon class="cls-8" points="84.45 68.62 97.03 103.24 92.43 82.27 84.45 68.62"/></g></svg>