<svg id="b5ecd551-b8d9-47b1-bd91-255ff33e7450" xmlns="http://www.w3.org/2000/svg" xmlns:xlink="http://www.w3.org/1999/xlink" viewBox="0 0 127 150"><defs><style>.cls-1{fill:none;}.cls-2{clip-path:url(#clip-path);}.cls-3{fill:#08539a;}.cls-4{fill:#a0616a;}.cls-5{fill:#2f2e41;}.cls-6{fill:#fdd333;}</style><clipPath id="clip-path"><path class="cls-1" d="M63.6,0H127a0,0,0,0,1,0,0V63.4A63.6,63.6,0,0,1,63.4,127h0A63.4,63.4,0,0,1,0,63.6v0A63.6,63.6,0,0,1,63.6,0Z"/></clipPath></defs><g class="cls-2"><path class="cls-3" d="M63.6,0H127a0,0,0,0,1,0,0V63.4A63.6,63.6,0,0,1,63.4,127h0A63.4,63.4,0,0,1,0,63.6v0A63.6,63.6,0,0,1,63.6,0Z"/><path class="cls-4" d="M76.78,48.8s-3.62,11.91-1.55,15.53-3.62,11.38-12.94,7.76-9.83-7.76-9.83-7.76,3.62-5.69,4.66-17.6Z"/><path class="cls-5" d="M91.27,137.3S127.5,160.58,128,167.83c0,0-20.7-2.07-21.21,16,0,0-12.42-4.66-15.53-5.69s-19.66-11.9-19.66-11.9-6.73,5.17-6.73,13.45.52,22.77,0,23.81-12.42-14-22.25-1L35.9,166.79S33.83,145.06,38,143.51l29-10.87Z"/><circle class="cls-4" cx="69.28" cy="39.75" r="15.52"/><path class="cls-6" d="M73.16,66.92s-17.51,4.62-19.88-4.16c0,0-21.52,4.16-25.14,18.13s8.79,47.61,8.79,48.64-10.35,7.25-5.69,10.35,8.8-.51,6.73,3.63-5.69,5.17-2.59,6.21,21.74-15,36.23-10.87,21.73,1,21.73,1l6.5-56.15a13,13,0,0,0-4.61-11.51c-3.25-2.67-7.55-5.56-11.72-6.34-8.28-1.55-8.63-2.4-8.63-2.4Z"/><path class="cls-5" d="M82.83,26.59s-5-10.82-14.57-8.32-15,6.24-15.4,10a52.93,52.93,0,0,0,.21,9.36s1-7.7,7.7-6S77.83,32,77.83,32L79.5,47s1.87-2.71,4-1S89.48,29.92,82.83,26.59Z"/><path class="cls-6" d="M36.93,80.37S49.35,114,48.32,118.15s0,4.66,1.55,5.69,5.69,11.9,5.69,11.9,2.59,6.21,4.66,7.77,2.07,5.69,2.07,5.69,5.18,5.17,4.14,6.21-1,2.59,1,4.14,4.14,3.62,3.1,4.14-8.28,6.21-10.35,5.69,1-2.59-1.55-3.62-4.14-2.59-3.11-3.11,4.14-.51,1-1.55-14-7.76-17.6-16S18,86.68,28.51,79.65C28.51,79.65,32.79,74.16,36.93,80.37Z"/><path class="cls-6" d="M94.38,74.68l.21.09a13,13,0,0,1,7.74,9.37c1.13,5.41,2.24,13.23,1.36,20.55-1.55,12.94-2.59,18.63-4.66,22.77s-2.58,2.59-2.07,5.7,3.11.51.52,4.65-4.14,3.11-3.1,5.18,2.58,2.07.51,4.66a14.17,14.17,0,0,0-2.58,4.65c-.52,1-2.07,8.8-2.07,8.8S82,158.51,77.3,159.55c0,0,4.14-7.25,3.1-8.8s-2.58-2.07-1-3.62,4.14-1,1.55-2.59S83,127,83,127Z"/></g></svg>