<svg id="b5ecd551-b8d9-47b1-bd91-255ff33e7450" xmlns="http://www.w3.org/2000/svg" xmlns:xlink="http://www.w3.org/1999/xlink" viewBox="0 0 127 150"><defs><style>.cls-1{fill:none;}.cls-2{clip-path:url(#clip-path);}.cls-3{fill:#fdd333;}.cls-4{fill:#2f2e41;}.cls-5{fill:#ffb8b8;}.cls-6{fill:#0b2e4d;}</style><clipPath id="clip-path"><path class="cls-1" d="M63.6,0H127a0,0,0,0,1,0,0V63.4A63.6,63.6,0,0,1,63.4,127h0A63.4,63.4,0,0,1,0,63.6v0A63.6,63.6,0,0,1,63.6,0Z"/></clipPath></defs><g class="cls-2"><path class="cls-3" d="M63.6,0H127a0,0,0,0,1,0,0V63.4A63.6,63.6,0,0,1,63.4,127h0A63.4,63.4,0,0,1,0,63.6v0A63.6,63.6,0,0,1,63.6,0Z"/><path class="cls-4" d="M84.44,33.15C78.68,23.43,67.3,23,67.3,23S56.2,21.56,49.09,36.37C42.45,50.17,33.3,63.5,47.61,66.73l2.59-8.05,1.6,8.65a56.81,56.81,0,0,0,6.12.1c15.33-.49,29.93.15,29.46-5.36C86.76,54.76,90,42.51,84.44,33.15Z"/><polygon class="cls-5" points="39.91 81.63 40.9 108.9 47.35 110.89 49.33 84.61 39.91 81.63"/><path class="cls-5" d="M41.89,106.92l-1,2L32,117.33s-6.45,5.45-4,8.92l6.45-3v-2l14.87-10.42Z"/><polygon class="cls-5" points="78.09 114.85 78.09 126.25 39.91 120.3 44.37 111.88 78.09 114.85"/><path class="cls-5" d="M95.44,79.15s3.47,9.42,4,10.42,6.45,23.79,6.45,23.79l14.87,23.8s10.91,12.89,4,13.39-11.9-10.91-11.9-10.91L97.92,120.3,84,83.62Z"/><circle class="cls-5" cx="66.93" cy="43.71" r="14.38"/><path class="cls-5" d="M62.72,53.37s0,10.42-5.46,11.9,4.46,12.4,4.46,12.4l19.84-9.92s-8.43-3-6-14.38Z"/><path class="cls-6" d="M59.49,64h0L49,67.5a16.66,16.66,0,0,0-10.36,14,12,12,0,0,0,.79,5.56c3,6.94,6.45,8.43,6.45,8.43s.5,3,0,3.47-1.49,1-1,2.47,1,1,.49,2.48a43,43,0,0,1-2.48,5s2,1,.5,2a5.62,5.62,0,0,0-2,3s33.71,1.49,37.18,5l6-24.3s13.88-5.45,13.39-10.9S94.45,73.21,91,71.72s-11.9-5.46-11.9-5.46S78,70,67.82,69.06A11.1,11.1,0,0,1,59.49,64Z"/><path class="cls-4" d="M79.08,122.78s-32.72-2-37.68-8.92L27.52,127.25,29,135.67l-.49,110.07s-.5,5.45,1,5.45,9.42,1,9.91,0-1.48-3,2-4,3.47,2.48,3.47-1-.5-18.34-1.49-20.82,11.4-59.49,11.4-59.49S87.51,254.17,90,256.15s3,5,4.47,4.46,8.42-2.48,8.92-3-.5-4.47,0-5.95,2,.49,0-2.48-2.48-5-2.48-6.45-18.34-97.17-18.34-97.17,4-8.92-2-13.88Z"/><circle class="cls-4" cx="68.69" cy="23.03" r="8.23"/><path class="cls-4" d="M59.59,20.86A8.24,8.24,0,0,1,67,12.67,8.23,8.23,0,0,0,65.21,29,7.32,7.32,0,0,0,67,29,8.23,8.23,0,0,1,59.59,20.86Z"/><polygon class="cls-4" points="81.89 32.22 70.64 26.32 55.11 28.73 51.9 42.93 59.9 42.62 62.13 37.41 62.13 42.53 65.83 42.39 67.97 34.09 69.31 42.93 82.43 42.66 81.89 32.22"/></g></svg>